# xmcd
#
# Track frame offsets: 
#        150
#        18255
#        35692
#        57646
#        75708
#        95769
#        114645
#        136400
#
# Disc length: 2036 seconds
#
# Revision: 0
# Processed by: cddbd v1.5.2PL0 Copyright (c) Steve Scherf et al.
# Submitted via: ExactAudioCopy v0.95b4
#
DISCID=6c07f208
DTITLE=TIMBALAND - SHOCK VALUE II THE ESSENTIALS
DYEAR=2010
DGENRE=R&B
TTITLE0=MORNING AFTER DARK
TTITLE1=CARRY OUT
TTITLE2=IF WE EVER MEET AGAIN
TTITLE3=SAY SONETHING
TTITLE4=WE BELONG TO THE MUSIC
TTITLE5=MARCHIN ON
TTITLE6=TIMOTHY WHERE YOU BEEN
TTITLE7=IM IN LOVE WITH YOU
EXTD=
EXTT0=
EXTT1=
EXTT2=
EXTT3=
EXTT4=
EXTT5=
EXTT6=
EXTT7=
PLAYORDER=
